inDegrees=no
num_controls=7
num_derivatives=13
num_iterations=106
num_multipliers=7
num_parameters=0
num_slacks=7
num_states=26
objective=0.341772
objective_accelerations=0.024366
objective_balance=0.000926
objective_effort=0.018653
objective_height=0.296352
objective_ligament=0.001474
solver_duration=1261.931032
status=Solve_Succeeded
success=true
DataType=double
version=3
OpenSimVersion=4.5
endheader
time	/jointset/ground_pelvis/pelvis_tilt/value	/jointset/ground_pelvis/pelvis_tx/value	/jointset/ground_pelvis/pelvis_ty/value	/jointset/hip_r/hip_flexion_r/value	/jointset/hip_r/hip_adduction_r/value	/jointset/hip_r/hip_rotation_r/value	/jointset/back/lumbar_extension/value	/jointset/patellofemoral_r/patellar_flexion_r/value	/jointset/knee_r/knee_flexion_r/value	/jointset/knee_r/knee_adduction_r/value	/jointset/knee_r/knee_rotation_r/value	/jointset/ankle_r/ankle_angle_r/value	/jointset/subtalar_r/subtalar_angle_r/value	/jointset/ground_pelvis/pelvis_tilt/speed	/jointset/ground_pelvis/pelvis_tx/speed	/jointset/ground_pelvis/pelvis_ty/speed	/jointset/hip_r/hip_flexion_r/speed	/jointset/hip_r/hip_adduction_r/speed	/jointset/hip_r/hip_rotation_r/speed	/jointset/back/lumbar_extension/speed	/jointset/patellofemoral_r/patellar_flexion_r/speed	/jointset/knee_r/knee_flexion_r/speed	/jointset/knee_r/knee_adduction_r/speed	/jointset/knee_r/knee_rotation_r/speed	/jointset/ankle_r/ankle_angle_r/speed	/jointset/subtalar_r/subtalar_angle_r/speed	/forceset/tau_hip_flexion_r	/forceset/tau_hip_adduction_r	/forceset/tau_hip_rotation_r	/forceset/tau_knee_flexion_r	/forceset/tau_ankle_angle_r	/forceset/tau_subtalar_angle_r	/forceset/tau_lumbar_extension	lambda_cid13_p0	lambda_cid14_p0	lambda_cid14_p1	lambda_cid14_p2	lambda_cid14_p3	lambda_cid14_p4	lambda_cid14_p5	/jointset/ground_pelvis/pelvis_tilt/accel	/jointset/ground_pelvis/pelvis_tx/accel	/jointset/ground_pelvis/pelvis_ty/accel	/jointset/hip_r/hip_flexion_r/accel	/jointset/hip_r/hip_adduction_r/accel	/jointset/hip_r/hip_rotation_r/accel	/jointset/back/lumbar_extension/accel	/jointset/patellofemoral_r/patellar_flexion_r/accel	/jointset/knee_r/knee_flexion_r/accel	/jointset/knee_r/knee_adduction_r/accel	/jointset/knee_r/knee_rotation_r/accel	/jointset/ankle_r/ankle_angle_r/accel	/jointset/subtalar_r/subtalar_angle_r/accel	gamma_cid13_p0	gamma_cid14_p0	gamma_cid14_p1	gamma_cid14_p2	gamma_cid14_p3	gamma_cid14_p4	gamma_cid14_p5
1	-0.07239500038053732	0.04632532916723404	0.7618477389197665	0.9271611450826069	-0.2318589795902104	-0.1267638723322586	-0.7853257174329548	1.181654038845041	1.181654038844992	-0.1166059459133045	0.1741965406779277	0.4362535186526382	0.188926451528002	0.06825195876068517	0.01017229211424003	0.01386062314029533	-0.1057295739993998	-0.003213593738086663	0.00409847333583308	0.01098387656076327	-0.02078478756192659	-0.02078478756192632	0.01545367210046887	9.799401730750491e-05	0.01460969082178017	0.001676206572732576	-0.2308227653917968	0.04844762738973231	0.02060804581800861	-0.3742873356197692	-0.07942710940811122	0.002326367042663363	0.2962415006843419	-0.820377235952829	-74.79807853342845	-14.15608982171137	5.04304441654384	8.675258287558911	-731.9369931468094	58.19257516319774	0.6850241604392352	0.1496744118123413	1.091007282073247	-3.36880113593415	0.1538212915765675	-0.08996406681346866	0.7471497703064497	-3.809276444565994	-3.809276444566041	1.007773225236872	0.007952510185544449	-1.351264059371283	-0.4329421178400133	-1.383464847483439e-10	-1.868947319612644e-09	1.02759081491322e-08	1.15641821321314e-09	1.660360094901871e-09	-4.649142813239074e-09	1.310406913213832e-08
1.01	-0.07167917743484639	0.04643471770753149	0.7620407448812324	0.9259363773613438	-0.2318837003708482	-0.1267264017272753	-0.7851762364646614	1.181256144662479	1.181256144662429	-0.116399757603906	0.1741979891228929	0.4363322548555882	0.1889211255066146	0.07487513044078051	0.01172568545419584	0.02473809150437607	-0.1392116847832821	-0.001735826585018519	0.003392475754009667	0.01907616160214201	-0.05879624307900116	-0.05879624307900081	0.02578905480434349	0.0001935349007940555	0.001159890928405138	-0.002738994914416388	-0.2313452598891674	0.04853335376186634	0.02061282865220441	-0.3740918394723902	-0.07982369448141069	0.002340047116255829	0.2970301491744793	-0.8266149369136303	-74.94749498840336	-14.16671484098326	5.033778155786623	8.530879412275462	-732.4396413179091	58.17987202566915	0.6453391318216777	0.1612128092347979	1.085743455805255	-3.336072949517137	0.1439674467894696	-0.06139210146486756	0.8648445466806475	-3.797409437362754	-3.797409437362709	1.047181411328235	0.01063485668699532	-1.338487632907079	-0.4454426789413795	1.051857563180455e-09	-1.614097385892241e-09	1.371279207297951e-08	1.549393397241007e-08	2.926148235956332e-09	-7.523440692223444e-09	1.737320022220885e-08
1.02	-0.07089824768034962	0.04656024838405805	0.7623424508947851	0.9243771571522605	-0.2318938008760318	-0.1266960859976299	-0.7849409173108288	1.180478070058331	1.180478070058278	-0.1160900633437953	0.1742004489725443	0.436277163123897	0.1888717207673979	0.08127332052195566	0.01340071936006119	0.03560063355765381	-0.1726200715632383	-0.0002895386472495224	0.002667498268263303	0.02815151366860368	-0.0968208718794584	-0.0968208718794577	0.03615486224283689	0.0003002749545513307	-0.01215589610842837	-0.007139536993126548	-0.2318677543865422	0.04861908013400154	0.02061761148638604	-0.3738963433250135	-0.08022027955470958	0.002353727189851182	0.2978187976646126	-0.8391836865638991	-75.10499642913008	-14.17203926404426	5.015995002751596	8.384270475751613	-733.0937191198926	58.20659791678606	0.6400278406551886	0.1740025249942565	1.088022019912648	-3.354056335148923	0.1475254485167372	-0.09376004759805986	0.9437631753230308	-3.811911101242531	-3.811911101242522	1.013858172160629	0.01019234423968937	-1.32446148806297	-0.4300102361522498	2.324712566278775e-09	-5.530738068066666e-11	1.813581933704495e-08	2.929019379647956e-08	1.713495319206903e-09	-9.416099296153412e-09	2.41566083595938e-08
1.03	-0.07005443492133195	0.04670302879228672	0.7627526687957629	0.9224843819917389	-0.2318895832106302	-0.1266731445637137	-0.7846104359674538	1.179319664504695	1.179319664504638	-0.1156766010474214	0.1742040300750075	0.4360893741101351	0.188778310789523	0.08745275071492598	0.01516482040968261	0.04643635241607363	-0.2059048040243507	0.001128804060274248	0.001917300416450389	0.03806019455628549	-0.1348637068073762	-0.1348637068073778	0.04654122944325733	0.0004169489152274862	-0.02540058149857643	-0.01154794725599661	-0.2319271689598852	0.04864819433965006	0.02061524713488655	-0.3733925069451671	-0.08072344827533057	0.002368279376119017	0.2980921565810589	-0.8582322510736516	-75.26897406319489	-14.17027028140454	4.988116289441635	8.425483890052368	-733.2379305046682	58.19127462396553	0.601429443065006	0.1790327011853246	1.080355414376043	-3.31115750110843	0.1383553168300806	-0.06616841985783989	1.031736477965911	-3.800990609935251	-3.800990609935588	1.051571690076404	0.01256544922144967	-1.324274031307304	-0.4470709248381334	3.598410946470662e-09	1.516788135464498e-09	2.256890928825548e-08	4.308093060080284e-08	4.755521875819109e-10	-1.12987411727869e-08	3.096567238521666e-08
1.04	-0.06914992209349553	0.04686373397225949	0.7632710456044388	0.9202596643467033	-0.2318713087911613	-0.1266578088614928	-0.7841774046287069	1.177780726417507	1.177780726417443	-0.1151591659398242	0.1742088100225254	0.435769177849108	0.1886406538083227	0.09341333428577865	0.01698567370887909	0.05723241509727708	-0.2390085684661032	0.002521812166193015	0.00114635192924077	0.04866151274297403	-0.1729273785900476	-0.1729273785900514	0.05694942448742358	0.0005400439654978379	-0.03863734556138743	-0.01598893765821616	-0.2319865835332246	0.04867730854529963	0.02061288278337514	-0.3728886705653217	-0.08122661699595152	0.002382831562389141	0.2983655154975081	-0.8839732909127724	-75.44104392096287	-14.1632093220646	4.951730465198838	8.463199750220294	-733.5344993428881	58.2151635745001	0.5962585162316482	0.185352974909279	1.080090784469373	-3.317862731276945	0.1424585281957351	-0.09791017467740175	1.082290635124376	-3.816078472193226	-3.816078472193235	1.018223740909792	0.01147656215852829	-1.322877222595541	-0.4365262640221406	4.72116480143306e-09	2.326982246174058e-09	2.453857433255882e-08	5.681633536395279e-08	6.696154681046366e-10	-1.279734076159501e-08	3.363209738771349e-08
